<svg xmlns:dc="http://purl.org/dc/elements/1.1/" xmlns:cc="http://creativecommons.org/ns#" xmlns:rdf="http://www.w3.org/1999/02/22-rdf-syntax-ns#" xmlns:svg="http://www.w3.org/2000/svg" xmlns="http://www.w3.org/2000/svg" xmlns:sodipodi="http://sodipodi.sourceforge.net/DTD/sodipodi-0.dtd" xmlns:inkscape="http://www.inkscape.org/namespaces/inkscape" version="1.1" x="0px" y="0px" viewBox="0 0 100 125"><g transform="translate(0,-952.36218)"><path style="font-size:medium;font-style:normal;font-variant:normal;font-weight:normal;font-stretch:normal;text-indent:0;text-align:start;text-decoration:none;line-height:normal;letter-spacing:normal;word-spacing:normal;text-transform:none;direction:ltr;block-progression:tb;writing-mode:lr-tb;text-anchor:start;baseline-shift:baseline;opacity:1;color:#000000;fill:#000000;fill-opacity:1;stroke:none;stroke-width:3.99999905000000000;marker:none;visibility:visible;display:inline;overflow:visible;enable-background:accumulate;font-family:Sans;-inkscape-font-specification:Sans" d="M 20 6 C 12.278596 6 6 12.2786 6 20 L 6 80 C 6 87.7214 12.278596 94 20 94 L 80 94 C 87.721404 94 94 87.7214 94 80 L 94 20 C 94 12.2786 87.721404 6 80 6 L 20 6 z M 20 10 L 80 10 C 85.574593 10 90 14.42541 90 20 L 90 80 C 90 85.5746 85.574593 90 80 90 L 20 90 C 14.425407 90 10 85.5746 10 80 L 10 20 C 10 14.42541 14.425407 10 20 10 z M 50 19 C 33.53235 19 20 31.47655 20 47 A 2.0001988 2.0001988 0 0 0 22 49 L 78 49 A 2.0001988 2.0001988 0 0 0 80 47 C 80 31.47655 66.46765 19 50 19 z M 48 23.09375 L 48 26 A 2.0001995 2.0001995 0 1 0 52 26 L 52 23.09375 C 57.560069 23.483737 62.602539 25.466145 66.59375 28.5625 L 63.59375 31.5625 A 2.0001995 2.0001995 0 1 0 66.40625 34.40625 L 69.53125 31.28125 C 73.031235 35.031569 75.309199 39.776706 75.78125 45 L 52.71875 45 L 57.78125 34.875 A 2.0001995 2.0001995 0 0 0 55.90625 31.96875 A 2.0001995 2.0001995 0 0 0 54.21875 33.09375 L 48.25 45 L 24.21875 45 C 24.690801 39.776706 26.968765 35.031569 30.46875 31.28125 L 33.59375 34.40625 A 2.0001995 2.0001995 0 1 0 36.40625 31.5625 L 33.40625 28.5625 C 37.397461 25.466145 42.439931 23.483737 48 23.09375 z " transform="translate(0,952.36218)"/></g><text x="0" y="115" fill="#000000" font-size="5px" font-weight="bold" font-family="'Helvetica Neue', Helvetica, Arial-Unicode, Arial, Sans-serif">Created by sevgenjory</text><text x="0" y="120" fill="#000000" font-size="5px" font-weight="bold" font-family="'Helvetica Neue', Helvetica, Arial-Unicode, Arial, Sans-serif">from the Noun Project</text></svg>