<?xml version="1.0" encoding="utf-8"?>
<!-- Generator: Adobe Illustrator 20.1.0, SVG Export Plug-In . SVG Version: 6.00 Build 0)  -->
<svg version="1.1" id="Calque_3" xmlns="http://www.w3.org/2000/svg" xmlns:xlink="http://www.w3.org/1999/xlink" x="0px" y="0px"
	 viewBox="0 0 450 88.7" style="enable-background:new 0 0 450 88.7;" xml:space="preserve">
<g>
	<path d="M384.8,0c0,14,0,28,0,42c0,2.4,0,4.9,0,7.9c-1.7,0.1-3.3,0.2-5,0.2c-10.1-13.6-19.6-27.6-30.4-40.7
		c-0.6,6.8-0.5,13.5-0.5,20.2c0,6.6,0,13.2,0,20.1c-1.6,0-3.3,0-5.2,0c0-16.2,0-32.3,0-48.6c2-1,4.1-0.3,6.7-0.5
		c9.3,12.5,18.7,25.2,28.5,38.3c1-4.5,0.4-8.5,0.5-12.5c0.1-4.3,0-8.6-0.1-12.9c0-4.1,0-8.2,0-12.4c1.6-0.4,3-0.8,4.4-1.1
		C384.2,0,384.5,0,384.8,0z"/>
	<path d="M271.1,0c1.8,0.3,3.5,0.6,5.9,1.1c9.1,12.3,18.5,25,28.3,38.1c1.2-4.4,0.4-8.5,0.6-12.5c0.1-4.3,0-8.6,0-12.9
		c0-4.1,0-8.3,0-12.8c1.4,0,3,0,5,0c0,16.1,0,32.2,0,48.9c-1.2,0.1-2.8,0.1-4.7,0.3c-9.9-13.6-19.9-27.3-30.2-41.5
		c-1.6,5-0.3,9.4-0.5,13.7c-0.1,4.6,0,9.2,0,13.9c0,4.4,0,8.9,0,13.6c-1.7,0-3.3,0-5.2,0c-0.1-0.8-0.2-1.5-0.2-2.2
		c0-14.8,0-29.6,0-44.3c0-1.1,0.1-2.1,0.2-3.2C270.5,0,270.8,0,271.1,0z"/>
	<path d="M222.1,0c6.7,16.5,13.4,33,20.3,49.7c-2,0-3.9,0-6.2,0c-2.1-5-4.4-10.1-6.6-15.3c-7.7,0-15.2,0-23.1,0
		c-2.4,5-4.8,10.1-7.3,15.4c-1.8,0-3.6,0-5.6,0c3.8-8.2,7.6-16.2,11.2-24.1c3.6-7.8,7.1-15.6,10.6-23.5c0.3-0.7,0.2-1.5,0.4-2.2
		C217.8,0,220,0,222.1,0z M218.8,6.2c-3.5,8-6.7,15.4-9.9,22.9c5.7,1,15.6,0.8,18.6-0.3C224.7,21.5,221.8,14.2,218.8,6.2z"/>
	<path d="M445.8,46.2c-0.8,1.1,0.3,2.2-0.7,3.6c-8.8,0-18,0-27.4,0c0-16.4,0-32.6,0-49c9.1,0,18,0,27.1,0c0,1.5,0,2.7,0,4.2
		c-7.1,0-13.9-0.5-21,0.1c0,5.7,0,11.1,0,16.7c3.4,1.1,6.9,0.4,10.3,0.5c3.3,0.1,6.7,0,10.2,0c0,1.6,0,2.9,0,4.6
		c-6.9,0-13.6,0-20.5,0c0,6.2,0,11.9,0,18.2c8,0.6,14.1-0.1,22,0.1C445.8,45.6,445.8,45.9,445.8,46.2z"/>
	<path d="M4,0.9c2-0.1,3.9-0.2,6.1-0.4c0.9,3.9,0.2,7.6,0.3,11.2c0.1,3.7,0,7.4,0,11.1c0,3.7,0,7.4,0,11.1c0,3.7,0,7.3,0,11.3
		c8.2,0,15.8,0,23.9,0c-0.8,1.8-1.4,3.1-2,4.7c-9.4,0-18.8,0-28.2,0C4,33.6,4,17.3,4,0.9z"/>
	<path d="M107.5,0c0,13.4,0,26.7,0,40.1c0,1.6,0,3.3,0,5.2c8.2,0,15.8,0,23.7,0c-0.7,1.8-1.3,3.1-1.8,4.5c-9.4,0-18.5,0-27.8,0
		c0-16.3,0-33.3,0-49.6c1.6-0.4,3.3,0.2,5-0.2C106.9,0,107.2,0,107.5,0z"/>
	<path d="M120.5,88.7c-0.2-0.6-0.7-1.1-0.7-1.7c0-6.6,0-13.2,0-19.7c2.3-1.3,3.3,0.2,4.3,1.6c3.1,4.2,6.2,8.4,9.4,12.6
		c0.3,0.5,0.8,0.9,1.5,1.6c0.9-5.7-0.3-11,0.7-16.7c0.8,0.6,1.7,0.9,1.7,1.2c0,7.1-0.2,14.1-0.3,21.2c-0.6,0-1.2,0-1.8,0
		c-4.1-5.9-8.1-11.7-12.3-17.8c-0.5,0.7-0.8,1-0.8,1.2c0,5.5,0.1,11,0.2,16.6C121.7,88.7,121.1,88.7,120.5,88.7z"/>
	<path d="M317.3,88.7c-0.1-2-0.3-3.9-0.3-5.9c-0.1-5.1,0-10.1,0-15.2c0-0.1,0.2-0.3,0.6-0.9c2.4,0.1,5.1,0.2,7.8,0.5
		c2.5,0.2,4.5,1.4,5,4c0.5,2.6-0.1,4.9-2.6,6.3c-0.4,0.2-0.7,0.6-1.3,1.1c1.3,2.2,2.6,4.4,3.8,6.7c0.5,1,0.7,2.2,1,3.4
		c-0.9,0-1.8,0-2.8,0c-1.5-3.3-3-6.5-4.6-10c-1.7,0.2-3,0.3-4.7,0.5c0,3.4,0,6.4,0,9.5C318.6,88.7,318,88.7,317.3,88.7z M319.6,76.7
		c6.1,0.7,7.5-0.1,8.4-4.8c-1.9-3.4-4.9-3.4-8.4-2.9C319.6,71.7,319.6,74.2,319.6,76.7z"/>
	<path d="M195.3,88.7c-0.7-0.3-1.3-0.7-2-1c-5.4-2.6-7.3-6.4-6.3-12.4c0.8-4.8,4.6-8.2,9.9-8.7c2.9-0.3,5.8-0.4,9,1.8
		c-1.3,0.3-2,0.6-2.7,0.6c-1.7-0.1-3.4-0.5-5-0.5c-5.4,0.2-8.6,3.6-8.6,8.8c-0.1,5.1,3.2,8.9,8.2,9.5c1.5,0.2,3-0.1,4.8-0.2
		c0.2-2.5,0.4-4.7,0.7-7.1c0.8,0,1.4,0.1,2.1,0.1c0,2.6,0,5,0,7.6c-0.8,0.5-1.7,1-2.5,1.6C200.3,88.7,197.8,88.7,195.3,88.7z"/>
	<path d="M255.4,88.7c0-7.2,0-14.4,0-21.9c4.2,0,8.1-0.6,12.3,0.6c-1.6,1.8-3.2,1.2-4.6,1.2c-1.5,0.1-3,0-4.9,0c0,2.6,0,4.8,0,7.2
		c2.6,1.5,6.1-0.5,8.8,1.1c0,0.4,0,0.7,0,1.1c-2.9,0.2-5.8,0.3-8.9,0.5c0,2.5,0,4.8,0,7.4c3.3,0,6.5,0,9.9,0
		c-0.3,1.2-0.5,1.9-0.7,2.7C263.4,88.7,259.4,88.7,255.4,88.7z"/>
	<path d="M433.8,88.7c0-7.2,0-14.3,0-21.5c5.6-1,9-0.8,11.6,0.7c-3,1.6-6.2,0-9.3,1.1c0,2.2,0,4.4,0,7.1c2.9,0.1,5.8,0.3,8.7,0.4
		c-2.5,2.8-5.8,1-8.8,2.1c0,2.2,0,4.6,0,7.4c3.3,0,6.4,0,10.2,0c-0.7,1.3-1.1,1.9-1.4,2.5C441.2,88.7,437.5,88.7,433.8,88.7z"/>
	<path d="M6.8,88.7c-0.2-0.6-0.7-1.1-0.7-1.7c0-6.6,0-13.2,0-20.1c0.9-0.1,1.5-0.1,2.7-0.2c0,6.5,0,12.7,0,19.4c3.6,0,6.7,0,10.3,0
		c-0.5,1.2-0.8,1.8-1.1,2.5C14.2,88.7,10.5,88.7,6.8,88.7z"/>
	<path d="M66.8,88.7c0-7.2,0-14.3,0-21.6c1-0.2,1.6-0.2,2.7-0.4c0,3.8,0.1,7.4,0.1,11c0,3.7,0,7.4,0,11
		C68.7,88.7,67.8,88.7,66.8,88.7z"/>
	<path d="M381.1,88.7c-0.1-6.9-0.1-13.8-0.2-20.7c0-0.4,0.4-0.8,0.6-1.2c0.5,0,1,0.1,1.6,0.1c0.1,0.5,0.4,1.1,0.4,1.7
		c0,5.8,0,11.6,0,17.4c0,0.9-0.4,1.8-0.6,2.6C382.3,88.7,381.7,88.7,381.1,88.7z"/>
	<path d="M62.7,0.9c2,0,3.7,0,5.8,0c0,16.4,0,32.6,0,49c-2,0-3.7,0-5.8,0C62.7,33.5,62.7,17.3,62.7,0.9z"/>
	<path d="M159.8,0.9c2.1,0,3.8,0,5.8,0c0,16.4,0,32.6,0,49c-2,0-3.8,0-5.8,0C159.8,33.6,159.8,17.5,159.8,0.9z"/>
</g>
</svg>
