<svg xmlns="http://www.w3.org/2000/svg" xmlns:xlink="http://www.w3.org/1999/xlink" version="1.1" x="0px" y="0px" viewBox="0 0 100 125" style="enable-background:new 0 0 100 100;" xml:space="preserve"><g><path d="M22,88.1C22,88.1,22,88.1,22,88.1c1.2,1.2,2.9,1.9,4.6,1.9s3.4-0.7,4.6-1.9l56.9-56.9c1.2-1.2,1.9-2.9,1.9-4.6   c0-1.7-0.7-3.4-1.9-4.6L78,11.9c-1.2-1.2-2.9-1.9-4.6-1.9c-1.7,0-3.4,0.7-4.6,1.9L11.9,68.8C10.7,70,10,71.6,10,73.4   c0,1.7,0.7,3.4,1.9,4.6L22,88.1z M15.4,72.3l56.9-56.9c0.3-0.3,0.7-0.4,1.1-0.4c0.4,0,0.8,0.2,1.1,0.4l10.2,10.2   c0.3,0.3,0.4,0.7,0.4,1.1c0,0.4-0.2,0.8-0.4,1.1l-6.5,6.5l-5.3-5.3c-1-1-2.6-1-3.5,0c-1,1-1,2.6,0,3.5l5.3,5.3l-6,6l-5.3-5.3   c-1-1-2.6-1-3.5,0c-1,1-1,2.6,0,3.5l5.3,5.3l-6,6l-5.3-5.3c-1-1-2.6-1-3.5,0c-1,1-1,2.6,0,3.5l5.3,5.3l-5.9,5.9l-5.3-5.3   c-1-1-2.6-1-3.5,0c-1,1-1,2.6,0,3.5l5.3,5.3l-5.9,5.9l-5.3-5.3c-1-1-2.6-1-3.5,0c-1,1-1,2.6,0,3.5l5.3,5.3l-8.9,8.9   c-0.6,0.6-1.6,0.6-2.1,0c0,0,0,0,0,0L15.4,74.4c-0.3-0.3-0.4-0.7-0.4-1.1C15,73,15.1,72.6,15.4,72.3z"/></g><text x="0" y="115" fill="#000000" font-size="5px" font-weight="bold" font-family="'Helvetica Neue', Helvetica, Arial-Unicode, Arial, Sans-serif">Created by Genius Icons</text><text x="0" y="120" fill="#000000" font-size="5px" font-weight="bold" font-family="'Helvetica Neue', Helvetica, Arial-Unicode, Arial, Sans-serif">from the Noun Project</text></svg>