<?xml version="1.0" standalone="no"?>
<!DOCTYPE svg PUBLIC "-//W3C//DTD SVG 20010904//EN"
 "http://www.w3.org/TR/2001/REC-SVG-20010904/DTD/svg10.dtd">
<svg version="1.0" xmlns="http://www.w3.org/2000/svg"
 width="100.000000pt" height="100.000000pt" viewBox="0 0 100.000000 100.000000"
 preserveAspectRatio="xMidYMid meet">
<metadata>
Created by potrace 1.14, written by Peter Selinger 2001-2017
</metadata>
<g transform="translate(0.000000,100.000000) scale(0.100000,-0.100000)"
fill="#000000" stroke="none">
<path d="M435 939 c-296 -41 -466 -355 -338 -626 24 -52 106 -153 116 -143 3
3 69 144 147 315 78 171 143 311 144 312 1 1 49 -100 106 -225 205 -446 178
-397 202 -376 34 31 74 96 98 159 28 76 31 195 7 276 -61 202 -272 337 -482
308z"/>
<path d="M491 539 c-5 -13 -50 -116 -100 -228 -50 -112 -91 -205 -91 -206 0
-10 106 -37 165 -42 71 -6 167 12 220 39 l24 13 -100 219 c-55 121 -102 222
-104 224 -2 3 -9 -6 -14 -19z"/>
</g>
</svg>
