<?xml version="1.0" encoding="utf-8"?>
<!-- Generator: Adobe Illustrator 20.1.0, SVG Export Plug-In . SVG Version: 6.00 Build 0)  -->
<svg version="1.1" id="Layer_1" xmlns="http://www.w3.org/2000/svg" xmlns:xlink="http://www.w3.org/1999/xlink" x="0px" y="0px"
	 viewBox="0 0 800 652" style="enable-background:new 0 0 800 652;" xml:space="preserve">
<g>
	<rect x="309.3" y="548.2" width="173" height="45.4"/>
</g>
<g>
	<path d="M373.4,555.2c0,10.4-49.4,74.5-132.8,86.5c-83.4,12-140-39.8-184.3-86.5S6.8,447.7,6.8,382.8s12.4-95.8,12.4-95.8
		s109.3,34.2,208,117S373.4,544.7,373.4,555.2z"/>
</g>
<g>
	<path d="M426.9,555.2c1.1,15.1,49.4,74.5,132.8,86.5c83.4,12,140-39.8,184.3-86.5s49.4-107.5,49.4-172.3s-12.4-95.8-12.4-95.8
		s-109.3,34.2-208,117S425.8,540,426.9,555.2z"/>
</g>
<polygon points="49,7.5 63.4,6 32.5,300.4 18.2,301.9 "/>
<polygon points="775,7.5 760.7,6 766.8,300.4 781.1,301.9 "/>
</svg>
