<svg id="Layer_1" data-name="Layer 1" xmlns="http://www.w3.org/2000/svg" viewBox="0 0 60.31 89.44"><defs><style>.cls-1{stroke:#000;stroke-miterlimit:10;}.cls-2{fill:red;}.cls-3{fill:#ff5c5c;}</style></defs><title>silouhette-rotating</title><path class="cls-1" d="M37.26,59.45s.2,16.14-.09,21.7c-.15,2.86-2.74,2-2.49,3.5.29,1.81,9,1.69,8.83-.07s-3,0-2.87-3.28c.15-5.59-.11-15.51-.11-21.88,1.14,0,6.74,0,7.1-1.72a2.44,2.44,0,0,0-1.71-3c0-.1-13.52-.28-14.1,0-.22.11-2.46.76-1.58,3C30.87,59.32,37.26,59.45,37.26,59.45Z" transform="translate(-2.36 -1.28)"/><path class="cls-2" d="M2.78,46.19c2-1.41,12-3.52,29.31-3.52S60.9,44.78,61.9,46.19a2.77,2.77,0,0,1,.31-.18,3.66,3.66,0,0,1,.46-.09c0-6.64-27.36-6.25-30.58-6.25S2.36,39.36,2.36,46Z" transform="translate(-2.36 -1.28)"/><g id="nbWrZG.tif"><path d="M44.29,57.61a55.44,55.44,0,0,0,.39-9.13c4.85-3.8,6.36-7.15,8.13-11,1.46-3.14,1.71-4.83.5-8.14a39,39,0,0,0-4-7.41c-2.05-2.53-4.08-3.55-7.53-4.32-4.94-1.11-10-.66-15.08,0-2,.25-4.35.95-5.62,2.56a38.15,38.15,0,0,0-6,9.88c-1.51,3.68-2.18,4.3.12,7.87s4.92,5.21,8.74,10c.31,2,.42,2,0,3.75-.86,4-5.15,5.67-5,11.33.15,7.33,1.32,11.35,1.31,18.68,0,3.57-1.48,7.71,2.33,7.7s3.6-4.88,3.58-8.36c0-6.83.36-14.35.4-16.51,0-1,4.14-5,5.66-6.74a.16.16,0,0,1,.27.17c-.83,1.93-3.33,4.47-3.22,6.82.15,3.41.42,11.19.66,20,.1,3.75-1.38,6,2.47,6,2.78,0,3.89-4,3.89-4s-.49-15.63.2-20.42C36.87,63.81,43.76,61.27,44.29,57.61Zm.3-30.94C46.75,30,48.7,33.5,48.7,33.5l-4.57,8.27s0,.19,0-4.08C44.12,34.87,44.59,28.36,44.59,26.68Zm-21-.63s.39,8.89.26,11.88c0,1,0,3.26,0,3.26L19,33.65Z" transform="translate(-2.36 -1.28)"/></g><circle cx="30.59" cy="7" r="7"/><path class="cls-3" d="M32.45,50C15.1,50,4.35,48.19,2.78,46.19L2.36,46c0,7,26.87,7,30.09,7a97.77,97.77,0,0,0,17.14-1.5v1.81L52.23,50l-2.65-2.78,0,2S38.67,50,32.45,50Z" transform="translate(-2.36 -1.28)"/><path class="cls-3" d="M62.67,45.92a3.66,3.66,0,0,0-.46.09,2.77,2.77,0,0,0-.31.18c-.67.86-6.84,2.35-6.84,2.35l.59,2.31S62.67,48.23,62.67,45.92Z" transform="translate(-2.36 -1.28)"/></svg>