<svg xmlns="http://www.w3.org/2000/svg" xmlns:xlink="http://www.w3.org/1999/xlink" version="1.1" x="0px" y="0px" viewBox="0 0 100 125" style="enable-background:new 0 0 100 100;" xml:space="preserve"><path d="M36.3,30.4c1.9,0,3.4-1.5,3.4-3.4c0-2.5-2.4-6.1-2.6-6.5c-0.4-0.5-1.2-0.5-1.6,0c-0.3,0.4-2.6,4-2.6,6.5  C32.8,28.8,34.4,30.4,36.3,30.4z M36.3,22.8c0.7,1.3,1.5,3,1.5,4.1c0,0.8-0.7,1.5-1.5,1.5s-1.5-0.7-1.5-1.5  C34.8,25.8,35.6,24.1,36.3,22.8z M50,30.4c1.9,0,3.4-1.5,3.4-3.4c0-2.5-2.4-6.1-2.6-6.5c-0.4-0.5-1.2-0.5-1.6,0  c-0.3,0.4-2.6,4-2.6,6.5C46.6,28.8,48.1,30.4,50,30.4z M50,22.8c0.7,1.3,1.5,3,1.5,4.1c0,0.8-0.7,1.5-1.5,1.5  c-0.8,0-1.5-0.7-1.5-1.5C48.5,25.8,49.3,24.1,50,22.8z M71.4,46.4h-4.2V33c0-0.5-0.4-1-1-1h-5.1c-0.5,0-1,0.4-1,1v13.3h-6.7V33  c0-0.5-0.4-1-1-1h-5.1c-0.5,0-1,0.4-1,1v13.3H46h-6.2V33c0-0.5-0.4-1-1-1h-5.1c-0.5,0-1,0.4-1,1v13.3h-1h-3.2c-2.4,0-4.4,2-4.4,4.4  v24.9c0,2.4,2,4.4,4.4,4.4h42.8c2.4,0,4.4-2,4.4-4.4V50.7C75.8,48.3,73.8,46.4,71.4,46.4z M62.1,34h3.2v12.4h-3.2V34z M48.4,34h3.2  v12.4h-3.2V34z M34.7,34h3.2v12.4h-3.2V34z M73.9,75.6c0,1.3-1.1,2.4-2.4,2.4H28.6c-1.3,0-2.4-1.1-2.4-2.4V63.9  c1.1,0.1,2.2,0.3,3.2,0.7c1.1,0.4,2.2,0.9,3.3,1.4c2.3,1.1,4.6,2.1,7.1,2.1c0.3,0,0.7,0,1-0.1c3-0.4,5.4-2.3,7.7-4.1  c2.3-1.8,4.4-3.6,7-3.7c1.9-0.1,3.7,0.7,5.7,1.5c0.3,0.1,0.7,0.3,1,0.4c3.8,1.6,7.7,2.6,11.7,3.2V75.6z M73.9,63.4  c-3.8-0.6-7.5-1.5-11-3c-0.3-0.1-0.6-0.3-1-0.4c-2.1-0.9-4.2-1.8-6.6-1.7c-3.2,0.2-5.7,2.2-8.1,4.1c-2.2,1.8-4.2,3.4-6.7,3.7  c-2.4,0.3-4.7-0.8-7.1-1.9c-1.1-0.5-2.3-1.1-3.5-1.5c-1.2-0.4-2.5-0.7-3.8-0.8V50.7c0-1.3,1.1-2.4,2.4-2.4h42.8  c1.3,0,2.4,1.1,2.4,2.4V63.4z M63.7,30.4c1.9,0,3.4-1.5,3.4-3.4c0-2.5-2.4-6.1-2.6-6.5c-0.4-0.5-1.2-0.5-1.6,0  c-0.3,0.4-2.6,4-2.6,6.5C60.3,28.8,61.8,30.4,63.7,30.4z M63.7,22.8c0.7,1.3,1.5,3,1.5,4.1c0,0.8-0.7,1.5-1.5,1.5  c-0.8,0-1.5-0.7-1.5-1.5C62.2,25.8,63,24.1,63.7,22.8z"/><text x="0" y="115" fill="#000000" font-size="5px" font-weight="bold" font-family="'Helvetica Neue', Helvetica, Arial-Unicode, Arial, Sans-serif">Created by Mello</text><text x="0" y="120" fill="#000000" font-size="5px" font-weight="bold" font-family="'Helvetica Neue', Helvetica, Arial-Unicode, Arial, Sans-serif">from the Noun Project</text></svg>